# AST/ASF file generated using VICON BodyLanguage
# -----------------------------------------------
:version 1.10
:name VICON
:units
  mass 1.0
  length 0.45
  angle deg
:documentation
   .ast/.asf automatically generated from VICON data using
   VICON BodyBuilder and BodyLanguage model FoxedUp or BRILLIANT.MOD
:root
   order TX TY TZ RX RY RZ
   axis XYZ
   position 0 0 0  
   orientation 0 0 0 
:bonedata
  begin
     id 1 
     name lhipjoint
     direction 0.660183 -0.676772 0.325788 
     length 2.75133 
     axis 0 0 0  XYZ
  end
  begin
     id 2 
     name lfemur
     direction 0.34202 -0.939693 0  
     length 7.70317  
     axis 0 0 20  XYZ
    dof rx ry rz
    limits (-160.0 20.0)
           (-70.0 70.0)
           (-60.0 70.0)
  end
  begin
     id 3 
     name ltibia
     direction 0.342105 -0.939662 0   
     length 7.18701   
     axis 0 0 20   XYZ
    dof rx
    limits (-10.0 170.0)
  end
  begin
     id 4 
     name lfoot
     direction 0.14163 -0.389126 0.910232   
     length 2.41719   
     axis -90 7.62852e-016 20   XYZ
    dof rx rz
    limits (-45.0 90.0)
           (-70.0 20.0)
  end
  begin
     id 5 
     name ltoes
     direction 1.53533e-011 -4.21926e-011 1   
     length 1.18611   
     axis -90 7.62852e-016 20   XYZ
    dof rx
    limits (-90.0 20.0)
  end
  begin
     id 6 
     name rhipjoint
     direction -0.6658 -0.67229 0.323631   
     length 2.76968  
     axis 0 0 0  XYZ 
  end
  begin
     id 7 
     name rfemur
     direction -0.34202 -0.939693 0   
     length 7.92547   
     axis 0 0 -20   XYZ
    dof rx ry rz
    limits (-160.0 20.0)
           (-70.0 70.0)
           (-70.0 60.0)
  end
  begin
     id 8 
     name rtibia
     direction -0.342022 -0.939692 0   
     length 7.22641   
     axis 0 0 -20   XYZ
    dof rx
    limits (-10.0 170.0)
 end
 begin
     id 9 
     name rfoot
     direction -0.105675 -0.29034 0.951071   
     length 2.48149  
     axis -90 -7.62852e-016 -20   XYZ
    dof rx rz
    limits (-45.0 90.0)
           (-20.0 70.0)
  end
  begin
     id 10 
     name rtoes
     direction -1.5349e-011 -4.21859e-011 1   
     length 1.23343   
     axis -90 -7.62852e-016 -20   XYZ
    dof rx
    limits (-90.0 20.0)
  end
  begin
     id 11 
     name lowerback
     direction 0.0104173 0.993624 -0.112266   
     length 2.00527   
     axis 0 0 0   XYZ
    dof rx ry rz
    limits (-20.0 45.0)
           (-30.0 30.0)
           (-30.0 30.0)
  end
  begin
     id 12 
     name upperback
     direction 0.00733149 0.999856 -0.0152913   
     length 2.01385   
     axis 0 0 0   XYZ
    dof rx ry rz
    limits (-20.0 45.0)
           (-30.0 30.0)
           (-30.0 30.0)
  end
  begin
     id 13 
     name thorax
     direction 0.0026304 0.999318 0.036841   
     length 2.03734   
     axis 0 0 0   XYZ
    dof rx ry rz
    limits (-20.0 45.0)
           (-30.0 30.0)
           (-30.0 30.0)
  end
  begin
     id 14 
     name lowerneck
     direction 0.0293154 0.998757 0.0403082   
     length 1.65303   
     axis 0 0 0   XYZ
    dof rx ry rz
    limits (-20.0 45.0)
           (-30.0 30.0)
           (-30.0 30.0)
  end
  begin
     id 15 
     name upperneck
     direction -0.0376619 0.998184 -0.0470083   
     length 1.60926   
     axis 0 0 0   XYZ
    dof rx ry rz
    limits (-20.0 45.0)
           (-30.0 30.0)
           (-30.0 30.0)
  end
  begin
     id 16
     name head
     direction -0.0170133 0.999635 -0.0209778  
     length 1.73625  
     axis 0 0 0   XYZ
    dof rx ry rz
    limits (-20.0 45.0)
           (-30.0 30.0)
           (-30.0 30.0)
  end
  begin
     id 17 
     name lclavicle
     direction 0.919857 0.39181 -0.0186333  
     length 3.75313  
     axis 0 0 0   XYZ
    dof ry rz
    limits (-20.0 10.0)
           (0.0 20.0)
  end
  begin
     id 18 
     name lhumerus
     direction 1 -4.48988e-011 1.44029e-027   
     length 5.49313   
     axis 180 -30 -90   XYZ
    dof rx ry rz
    limits (-60.0 90.0)
           (-90.0 90.0)
           (-90.0 90.0)
  end
  begin
     id 19
     name lradius
     direction 1 -4.48924e-011 7.46281e-027   
     length 3.29037   
     axis 180 -30 -90   XYZ
    dof rx
    limits (-10.0 170.0)
  end
  begin
     id 20
     name lwrist
     direction 1 -4.48955e-011 2.19879e-026   
     length 1.64519   
     axis -1.34358e-014 90 90   XYZ
    dof ry
    limits (-180.0 0.0)
 end
  begin
     id 21 
     name lhand
     direction 1 -4.48978e-011 4.39747e-026   
     length 0.729656   
     axis -2.80598e-014 90 90   XYZ
    dof rx rz
    limits (-90.0 90.0)
           (-45.0 45.0)
  end
  begin
     id 22 
     name lfingers
     direction 1 -4.49071e-011 8.79411e-026   
     length 0.588268   
     axis -5.61193e-014 90 90   XYZ
    dof rx
    limits (0.0 90.0)
  end
  begin
     id 23
     name lthumb
     direction 0.707107 -6.34817e-011 0.707107   
     length 0.844638   
     axis -90 45 -9.86923e-015   XYZ
    dof rx rz
    limits (-45.0 45.0)
           (-45.0 45.0)
  end
  begin
     id 24 
     name rclavicle
     direction -0.919898 0.388279 0.0550233   
     length 3.7171  
     axis 0 0 0   XYZ 
    dof ry rz
    limits (-10.0 20.0)
           (-20.0 0.0)
  end
  begin
     id 25 
     name rhumerus
     direction -1 -4.48968e-011 9.98372e-028  
     length 5.23684   
     axis 180 30 90   XYZ
    dof rx ry rz
    limits (-90.0 60.0)
           (-90.0 90.0)
           (-90.0 90.0)
  end
  begin
     id 26 
     name rradius
     direction -1 -4.48956e-011 1.01023e-026   
     length 3.38251   
     axis 180 30 90   XYZ
    dof rx
    limits (-10.0 170.0)
  end
  begin
     id 27 
     name rwrist
     direction -1 -4.4892e-011 2.19886e-026   
     length 1.69126   
     axis -1.34358e-014 -90 -90   XYZ
    dof ry
    limits (-180.0 0.0)
  end
  begin
     id 28
     name rhand
     direction -1 -4.49024e-011 4.39727e-026   
     length 0.691454   
     axis -2.80598e-014 -90 -90   XYZ
    dof rx rz
    limits (-90.0 90.0)
           (-45.0 45.0)
  end
  begin
     id 29
     name rfingers
     direction -1 -4.49097e-011 8.79388e-026   
     length 0.557468   
     axis -5.61193e-014 -90 -90   XYZ
    dof rx
    limits (0.0 90.0)
  end
  begin
     id 30
     name rthumb
     direction -0.707107 -6.34938e-011 0.707107   
     length 0.800416   
     axis -90 -45 9.86923e-015   XYZ
    dof rx rz
    limits (-45.0 45.0)
           (-45.0 45.0)
  end
:hierarchy
  begin
    root lhipjoint rhipjoint lowerback
    lhipjoint lfemur
    lfemur ltibia
    ltibia lfoot
    lfoot ltoes
    rhipjoint rfemur
    rfemur rtibia
    rtibia rfoot
    rfoot rtoes
    lowerback upperback
    upperback thorax
    thorax lowerneck lclavicle rclavicle
    lowerneck upperneck
    upperneck head
    lclavicle lhumerus
    lhumerus lradius
    lradius lwrist
    lwrist lhand lthumb
    lhand lfingers
    rclavicle rhumerus
    rhumerus rradius
    rradius rwrist
    rwrist rhand rthumb
    rhand rfingers
  end

#!OML:ASF H:\BabyWalks\Project 1\Capture day 1\Session 1\baby.ASF
:FULLY-SPECIFIED
:DEGREES
200
root -32.3712 17.6671 -3.37455 -10.77 77.8683 -19.7234
lowerback 18.2725 -2.53981 -6.70785
upperback 5.6636 -4.16783 1.20189
thorax -3.505 -1.97635 5.92948
lowerneck -5.33399 4.28889 -6.75443
upperneck -12.577 6.39952 1.62846
head -3.46629 3.573 1.59756
rclavicle 1.94809e-014 -1.03368e-014
rhumerus -39.7355 21.5853 -82.6442
rradius 40.2377
rwrist 0.256205
rhand -4.53006 -16.7165
rfingers 7.12502
rthumb 21.2449 -45.5722
lclavicle 1.94809e-014 -1.03368e-014
lhumerus -38.1902 3.48898 78.9497
lradius 63.0668
lwrist 6.89731
lhand -2.26893 13.3292
lfingers 7.12502
lthumb 23.4154 41.9246
rfemur -26.9998 18.8262 16.5402
rtibia 32.3839
rfoot -18.9346 9.98067
rtoes -12.802
lfemur -3.04078 -7.94055 -15.165
ltibia 25.0053
lfoot -24.8261 -19.1252
ltoes 10.2133
201
root -32.2491 17.6483 -3.34662 -10.6463 78.3254 -19.5848
lowerback 18.2526 -2.70017 -6.45117
upperback 5.64078 -4.3197 1.42605
thorax -3.49942 -2.05214 6.053
lowerneck -5.34465 4.29212 -6.48916
upperneck -12.4616 6.33873 1.0504
head -3.38257 3.54373 1.36117
rclavicle -1.39149e-014 8.74653e-015
rhumerus -39.6726 21.2878 -82.2549
rradius 40.1337
rwrist 0.224718
rhand -4.55668 -16.7199
rfingers 7.12502
rthumb 21.2193 -45.5785
lclavicle -1.39149e-014 8.74653e-015
lhumerus -38.4187 3.29801 79.3455
lradius 63.1009
lwrist 6.93172
lhand -2.13125 13.2051
lfingers 7.12502
lthumb 23.5475 41.7836
rfemur -26.8458 18.9003 16.538
rtibia 32.1148
rfoot -18.7701 9.52472
rtoes -11.9781
lfemur -2.86605 -7.62222 -15.2264
ltibia 25.3476
lfoot -24.6226 -20.0334
ltoes 10.6045
202
root -32.1278 17.6261 -3.31755 -10.4004 78.8078 -19.3021
lowerback 18.2392 -2.8506 -6.20905
upperback 5.62582 -4.46088 1.63781
thorax -3.49001 -2.12253 6.16946
lowerneck -5.32554 4.27943 -6.20288
upperneck -12.366 6.2527 0.437522
head -3.30918 3.5025 1.11146
rclavicle 3.29983e-014 -3.26007e-014
rhumerus -39.598 20.9393 -81.8682
rradius 40.0135
rwrist 0.199777
rhand -4.5887 -16.7317
rfingers 7.12502
rthumb 21.1885 -45.5938
lclavicle 3.29983e-014 -3.26007e-014
lhumerus -38.6452 3.10175 79.7445
lradius 63.1333
lwrist 6.95244
lhand -2.00124 13.0674
lfingers 7.12502
lthumb 23.6722 41.6298
rfemur -26.6276 18.9037 16.553
rtibia 32.0778
rfoot -18.6176 8.87178
rtoes -10.9974
lfemur -2.76481 -7.21205 -15.3006
ltibia 25.8578
lfoot -24.4117 -21.0079
ltoes 10.918
203
root -32.0075 17.6009 -3.28695 -10.057 79.3195 -18.8989
lowerback 18.2412 -2.99173 -5.97706
upperback 5.61844 -4.59175 1.83794
thorax -3.4821 -2.1874 6.27798
lowerneck -5.28356 4.25301 -5.89924
upperneck -12.2871 6.14572 -0.203807
head -3.24492 3.4516 0.851325
rclavicle 1.31198e-013 -1.98785e-014
rhumerus -39.5153 20.5318 -81.487
rradius 39.8775
rwrist 0.185971
rhand -4.62664 -16.7441
rfingers 7.12502
rthumb 21.1521 -45.6103
lclavicle 1.31198e-013 -1.98785e-014
lhumerus -38.872 2.90977 80.1424
lradius 63.1685
lwrist 6.95814
lhand -1.9057 12.9365
lfingers 7.12502
lthumb 23.7638 41.4871
rfemur -26.3397 18.8775 16.5801
rtibia 32.2637
rfoot -18.6009 8.07196
rtoes -10.0188
lfemur -2.75374 -6.71244 -15.3729
ltibia 26.5639
lfoot -24.1429 -22.0747
ltoes 11.2497
204
root -31.888 17.5733 -3.25532 -9.57181 79.857 -18.3234
lowerback 18.2594 -3.1212 -5.75414
upperback 5.62482 -4.70868 2.02249
thorax -3.47042 -2.24517 6.37285
lowerneck -5.21308 4.2125 -5.57772
upperneck -12.2396 6.01722 -0.87361
head -3.19651 3.39144 0.580186
rclavicle 8.11041e-014 -1.27222e-014
rhumerus -39.4185 20.0472 -81.1051
rradius 39.7181
rwrist 0.201011
rhand -4.67318 -16.7541
rfingers 7.12502
rthumb 21.1074 -45.6252
lclavicle 8.11041e-014 -1.27222e-014
lhumerus -39.096 2.73361 80.5385
lradius 63.2066
lwrist 6.94722
lhand -1.85881 12.8114
lfingers 7.12502
lthumb 23.8088 41.3561
rfemur -25.9803 18.8514 16.5996
rtibia 32.6478
rfoot -18.7573 7.30068
rtoes -8.85739
lfemur -2.83862 -6.12715 -15.4495
ltibia 27.4911
lfoot -23.7503 -23.2469
ltoes 11.7146
